<mxfile host="Electron" modified="2024-03-22T10:54:48.181Z" agent="Mozilla/5.0 (Windows NT 10.0; Win64; x64) AppleWebKit/537.36 (KHTML, like Gecko) draw.io/24.0.4 Chrome/120.0.6099.109 Electron/28.1.0 Safari/537.36" etag="wxdh21OYa4NEyDwuBtIb" version="24.0.4" type="device">
  <diagram id="f84udX-HMIuU50X7jIV-" name="analysis">
    <mxGraphModel dx="1434" dy="854" grid="1" gridSize="10" guides="1" tooltips="1" connect="1" arrows="1" fold="1" page="1" pageScale="1" pageWidth="1100" pageHeight="850" math="0" shadow="0">
      <root>
        <mxCell id="0" />
        <mxCell id="1" parent="0" />
        <mxCell id="kbGSK8YvZnMrt6RSUDQe-1" value="analysis" style="shape=folder;fontStyle=1;spacingTop=10;tabWidth=40;tabHeight=14;tabPosition=left;html=1;whiteSpace=wrap;verticalAlign=top;movable=1;resizable=1;rotatable=1;deletable=1;editable=1;locked=0;connectable=1;align=left;" parent="1" vertex="1">
          <mxGeometry x="80" y="160" width="1270" height="640" as="geometry" />
        </mxCell>
        <mxCell id="AL9Y4oGZbgkQe4OAnznB-5" value="" style="edgeStyle=orthogonalEdgeStyle;rounded=0;orthogonalLoop=1;jettySize=auto;html=1;endArrow=open;endFill=0;dashed=1;exitX=1;exitY=0.25;exitDx=0;exitDy=0;" parent="1" source="Q3LGZ9pbvs5X4_79zKCm-5" edge="1">
          <mxGeometry relative="1" as="geometry">
            <mxPoint x="800" y="320" as="targetPoint" />
            <Array as="points" />
          </mxGeometry>
        </mxCell>
        <mxCell id="Q3LGZ9pbvs5X4_79zKCm-5" value="AnalysisFactory" style="swimlane;fontStyle=1;align=center;verticalAlign=top;childLayout=stackLayout;horizontal=1;startSize=26;horizontalStack=0;resizeParent=1;resizeParentMax=0;resizeLast=0;collapsible=1;marginBottom=0;whiteSpace=wrap;html=1;" parent="1" vertex="1">
          <mxGeometry x="612" y="610" width="160" height="80" as="geometry">
            <mxRectangle x="200" y="250" width="130" height="30" as="alternateBounds" />
          </mxGeometry>
        </mxCell>
        <mxCell id="Q3LGZ9pbvs5X4_79zKCm-7" value="" style="line;strokeWidth=1;fillColor=none;align=left;verticalAlign=middle;spacingTop=-1;spacingLeft=3;spacingRight=3;rotatable=0;labelPosition=right;points=[];portConstraint=eastwest;strokeColor=inherit;" parent="Q3LGZ9pbvs5X4_79zKCm-5" vertex="1">
          <mxGeometry y="26" width="160" height="8" as="geometry" />
        </mxCell>
        <mxCell id="Q3LGZ9pbvs5X4_79zKCm-8" value="+ &lt;u&gt;get_direct_analysis()&lt;/u&gt;&lt;div&gt;+ &lt;u&gt;get_indirect_analysis()&lt;/u&gt;&lt;/div&gt;" style="text;strokeColor=none;fillColor=none;align=left;verticalAlign=top;spacingLeft=4;spacingRight=4;overflow=hidden;rotatable=0;points=[[0,0.5],[1,0.5]];portConstraint=eastwest;whiteSpace=wrap;html=1;" parent="Q3LGZ9pbvs5X4_79zKCm-5" vertex="1">
          <mxGeometry y="34" width="160" height="46" as="geometry" />
        </mxCell>
        <mxCell id="Q3LGZ9pbvs5X4_79zKCm-9" value="AnalysisInputWrapper" style="swimlane;fontStyle=1;align=center;verticalAlign=top;childLayout=stackLayout;horizontal=1;startSize=26;horizontalStack=0;resizeParent=1;resizeParentMax=0;resizeLast=0;collapsible=1;marginBottom=0;whiteSpace=wrap;html=1;" parent="1" vertex="1">
          <mxGeometry x="870" y="598" width="160" height="104" as="geometry">
            <mxRectangle x="200" y="250" width="130" height="30" as="alternateBounds" />
          </mxGeometry>
        </mxCell>
        <mxCell id="Q3LGZ9pbvs5X4_79zKCm-101" style="edgeStyle=orthogonalEdgeStyle;rounded=0;orthogonalLoop=1;jettySize=auto;html=1;endArrow=none;endFill=0;startArrow=diamondThin;startFill=0;exitX=-0.01;exitY=0.205;exitDx=0;exitDy=0;exitPerimeter=0;" parent="Q3LGZ9pbvs5X4_79zKCm-9" source="Q3LGZ9pbvs5X4_79zKCm-89" edge="1">
          <mxGeometry relative="1" as="geometry">
            <mxPoint x="-50" y="-278" as="targetPoint" />
          </mxGeometry>
        </mxCell>
        <mxCell id="Q3LGZ9pbvs5X4_79zKCm-104" value="1" style="edgeLabel;html=1;align=center;verticalAlign=middle;resizable=0;points=[];" parent="Q3LGZ9pbvs5X4_79zKCm-101" vertex="1" connectable="0">
          <mxGeometry x="-0.8703" relative="1" as="geometry">
            <mxPoint as="offset" />
          </mxGeometry>
        </mxCell>
        <mxCell id="Q3LGZ9pbvs5X4_79zKCm-89" value="+ analysis&lt;div&gt;+ graph_file&lt;/div&gt;" style="text;strokeColor=none;fillColor=none;align=left;verticalAlign=top;spacingLeft=4;spacingRight=4;overflow=hidden;rotatable=0;points=[[0,0.5],[1,0.5]];portConstraint=eastwest;whiteSpace=wrap;html=1;" parent="Q3LGZ9pbvs5X4_79zKCm-9" vertex="1">
          <mxGeometry y="26" width="160" height="44" as="geometry" />
        </mxCell>
        <mxCell id="Q3LGZ9pbvs5X4_79zKCm-10" value="" style="line;strokeWidth=1;fillColor=none;align=left;verticalAlign=middle;spacingTop=-1;spacingLeft=3;spacingRight=3;rotatable=0;labelPosition=right;points=[];portConstraint=eastwest;strokeColor=inherit;" parent="Q3LGZ9pbvs5X4_79zKCm-9" vertex="1">
          <mxGeometry y="70" width="160" height="8" as="geometry" />
        </mxCell>
        <mxCell id="Q3LGZ9pbvs5X4_79zKCm-90" value="+ &lt;u&gt;from_input()&lt;/u&gt;" style="text;strokeColor=none;fillColor=none;align=left;verticalAlign=top;spacingLeft=4;spacingRight=4;overflow=hidden;rotatable=0;points=[[0,0.5],[1,0.5]];portConstraint=eastwest;whiteSpace=wrap;html=1;" parent="Q3LGZ9pbvs5X4_79zKCm-9" vertex="1">
          <mxGeometry y="78" width="160" height="26" as="geometry" />
        </mxCell>
        <mxCell id="Q3LGZ9pbvs5X4_79zKCm-65" style="edgeStyle=orthogonalEdgeStyle;rounded=0;orthogonalLoop=1;jettySize=auto;html=1;entryX=0.5;entryY=1;entryDx=0;entryDy=0;endArrow=block;endFill=0;" parent="1" source="Q3LGZ9pbvs5X4_79zKCm-12" target="Q3LGZ9pbvs5X4_79zKCm-14" edge="1">
          <mxGeometry relative="1" as="geometry" />
        </mxCell>
        <mxCell id="Q3LGZ9pbvs5X4_79zKCm-12" value="&lt;p style=&quot;margin:0px;margin-top:4px;text-align:center;&quot;&gt;&lt;i&gt;&amp;lt;&amp;lt;Interface&amp;gt;&amp;gt;&lt;/i&gt;&lt;br&gt;&lt;b&gt;AnalysisDirectProtocol&lt;/b&gt;&lt;/p&gt;&lt;hr size=&quot;1&quot; style=&quot;border-style:solid;&quot;&gt;&lt;p style=&quot;margin:0px;margin-left:4px;&quot;&gt;&lt;br&gt;&lt;/p&gt;&lt;hr size=&quot;1&quot; style=&quot;border-style:solid;&quot;&gt;&lt;p style=&quot;margin:0px;margin-left:4px;&quot;&gt;&lt;br&gt;&lt;/p&gt;" style="verticalAlign=top;align=left;overflow=fill;html=1;whiteSpace=wrap;" parent="1" vertex="1">
          <mxGeometry x="110" y="462" width="160" height="80" as="geometry" />
        </mxCell>
        <mxCell id="Q3LGZ9pbvs5X4_79zKCm-23" style="edgeStyle=orthogonalEdgeStyle;rounded=0;orthogonalLoop=1;jettySize=auto;html=1;entryX=0.5;entryY=1;entryDx=0;entryDy=0;dashed=1;endArrow=block;endFill=0;" parent="1" source="Q3LGZ9pbvs5X4_79zKCm-20" target="Q3LGZ9pbvs5X4_79zKCm-12" edge="1">
          <mxGeometry relative="1" as="geometry" />
        </mxCell>
        <mxCell id="Q3LGZ9pbvs5X4_79zKCm-27" style="edgeStyle=orthogonalEdgeStyle;rounded=0;orthogonalLoop=1;jettySize=auto;html=1;entryX=0.5;entryY=1;entryDx=0;entryDy=0;endArrow=block;endFill=0;dashed=1;" parent="1" source="Q3LGZ9pbvs5X4_79zKCm-24" target="Q3LGZ9pbvs5X4_79zKCm-13" edge="1">
          <mxGeometry relative="1" as="geometry" />
        </mxCell>
        <mxCell id="Q3LGZ9pbvs5X4_79zKCm-41" style="edgeStyle=orthogonalEdgeStyle;rounded=0;orthogonalLoop=1;jettySize=auto;html=1;endArrow=open;endFill=0;" parent="1" source="Q3LGZ9pbvs5X4_79zKCm-30" target="Q3LGZ9pbvs5X4_79zKCm-5" edge="1">
          <mxGeometry relative="1" as="geometry" />
        </mxCell>
        <mxCell id="Q3LGZ9pbvs5X4_79zKCm-30" value="AnalysisCollection" style="swimlane;fontStyle=1;align=center;verticalAlign=top;childLayout=stackLayout;horizontal=1;startSize=26;horizontalStack=0;resizeParent=1;resizeParentMax=0;resizeLast=0;collapsible=1;marginBottom=0;whiteSpace=wrap;html=1;" parent="1" vertex="1">
          <mxGeometry x="612" y="385" width="160" height="104" as="geometry" />
        </mxCell>
        <mxCell id="Q3LGZ9pbvs5X4_79zKCm-31" value="+ direct_analyses&lt;div&gt;+ indirect_analyses&lt;/div&gt;" style="text;strokeColor=none;fillColor=none;align=left;verticalAlign=top;spacingLeft=4;spacingRight=4;overflow=hidden;rotatable=0;points=[[0,0.5],[1,0.5]];portConstraint=eastwest;whiteSpace=wrap;html=1;" parent="Q3LGZ9pbvs5X4_79zKCm-30" vertex="1">
          <mxGeometry y="26" width="160" height="44" as="geometry" />
        </mxCell>
        <mxCell id="Q3LGZ9pbvs5X4_79zKCm-32" value="" style="line;strokeWidth=1;fillColor=none;align=left;verticalAlign=middle;spacingTop=-1;spacingLeft=3;spacingRight=3;rotatable=0;labelPosition=right;points=[];portConstraint=eastwest;strokeColor=inherit;" parent="Q3LGZ9pbvs5X4_79zKCm-30" vertex="1">
          <mxGeometry y="70" width="160" height="8" as="geometry" />
        </mxCell>
        <mxCell id="Q3LGZ9pbvs5X4_79zKCm-64" value="+ &lt;u&gt;from_config()&lt;/u&gt;" style="text;strokeColor=none;fillColor=none;align=left;verticalAlign=top;spacingLeft=4;spacingRight=4;overflow=hidden;rotatable=0;points=[[0,0.5],[1,0.5]];portConstraint=eastwest;whiteSpace=wrap;html=1;" parent="Q3LGZ9pbvs5X4_79zKCm-30" vertex="1">
          <mxGeometry y="78" width="160" height="26" as="geometry" />
        </mxCell>
        <mxCell id="Q3LGZ9pbvs5X4_79zKCm-34" style="edgeStyle=orthogonalEdgeStyle;rounded=0;orthogonalLoop=1;jettySize=auto;html=1;endArrow=open;endFill=0;" parent="1" source="Q3LGZ9pbvs5X4_79zKCm-5" target="Q3LGZ9pbvs5X4_79zKCm-9" edge="1">
          <mxGeometry relative="1" as="geometry">
            <mxPoint x="1190" y="650.9920000000002" as="targetPoint" />
          </mxGeometry>
        </mxCell>
        <mxCell id="Q3LGZ9pbvs5X4_79zKCm-47" style="edgeStyle=orthogonalEdgeStyle;rounded=0;orthogonalLoop=1;jettySize=auto;html=1;entryX=0.5;entryY=0;entryDx=0;entryDy=0;endArrow=open;endFill=0;" parent="1" source="Q3LGZ9pbvs5X4_79zKCm-49" target="Q3LGZ9pbvs5X4_79zKCm-30" edge="1">
          <mxGeometry relative="1" as="geometry">
            <mxPoint x="240" y="170" as="sourcePoint" />
          </mxGeometry>
        </mxCell>
        <mxCell id="Q3LGZ9pbvs5X4_79zKCm-57" value="AnalysisResultWrapper" style="swimlane;fontStyle=1;align=center;verticalAlign=top;childLayout=stackLayout;horizontal=1;startSize=26;horizontalStack=0;resizeParent=1;resizeParentMax=0;resizeLast=0;collapsible=1;marginBottom=0;whiteSpace=wrap;html=1;" parent="1" vertex="1">
          <mxGeometry x="864" y="398" width="160" height="78" as="geometry" />
        </mxCell>
        <mxCell id="Q3LGZ9pbvs5X4_79zKCm-58" value="+ analysis_result&lt;div&gt;+ analysis&lt;/div&gt;" style="text;strokeColor=none;fillColor=none;align=left;verticalAlign=top;spacingLeft=4;spacingRight=4;overflow=hidden;rotatable=0;points=[[0,0.5],[1,0.5]];portConstraint=eastwest;whiteSpace=wrap;html=1;" parent="Q3LGZ9pbvs5X4_79zKCm-57" vertex="1">
          <mxGeometry y="26" width="160" height="44" as="geometry" />
        </mxCell>
        <mxCell id="Q3LGZ9pbvs5X4_79zKCm-59" value="" style="line;strokeWidth=1;fillColor=none;align=left;verticalAlign=middle;spacingTop=-1;spacingLeft=3;spacingRight=3;rotatable=0;labelPosition=right;points=[];portConstraint=eastwest;strokeColor=inherit;" parent="Q3LGZ9pbvs5X4_79zKCm-57" vertex="1">
          <mxGeometry y="70" width="160" height="8" as="geometry" />
        </mxCell>
        <mxCell id="Q3LGZ9pbvs5X4_79zKCm-96" style="edgeStyle=orthogonalEdgeStyle;rounded=0;orthogonalLoop=1;jettySize=auto;html=1;entryX=0;entryY=0.75;entryDx=0;entryDy=0;endArrow=none;endFill=0;startArrow=diamondThin;startFill=0;" parent="1" source="Q3LGZ9pbvs5X4_79zKCm-14" target="Q3LGZ9pbvs5X4_79zKCm-93" edge="1">
          <mxGeometry relative="1" as="geometry" />
        </mxCell>
        <mxCell id="Q3LGZ9pbvs5X4_79zKCm-97" value="1" style="edgeLabel;html=1;align=center;verticalAlign=middle;resizable=0;points=[];" parent="Q3LGZ9pbvs5X4_79zKCm-96" vertex="1" connectable="0">
          <mxGeometry x="-0.6521" y="-1" relative="1" as="geometry">
            <mxPoint x="-23" y="-1" as="offset" />
          </mxGeometry>
        </mxCell>
        <mxCell id="Q3LGZ9pbvs5X4_79zKCm-98" value="1" style="edgeLabel;html=1;align=center;verticalAlign=middle;resizable=0;points=[];" parent="Q3LGZ9pbvs5X4_79zKCm-96" vertex="1" connectable="0">
          <mxGeometry x="0.8819" y="-1" relative="1" as="geometry">
            <mxPoint as="offset" />
          </mxGeometry>
        </mxCell>
        <mxCell id="Q3LGZ9pbvs5X4_79zKCm-14" value="&lt;p style=&quot;margin:0px;margin-top:4px;text-align:center;&quot;&gt;&lt;i&gt;&amp;lt;&amp;lt;Interface&amp;gt;&amp;gt;&lt;/i&gt;&lt;br&gt;&lt;b&gt;AnalysisProtocol&lt;/b&gt;&lt;/p&gt;&lt;hr size=&quot;1&quot; style=&quot;border-style:solid;&quot;&gt;&lt;p style=&quot;margin:0px;margin-left:4px;&quot;&gt;+ graph_file&lt;/p&gt;&lt;p style=&quot;margin:0px;margin-left:4px;&quot;&gt;+ analysis&lt;/p&gt;&lt;hr size=&quot;1&quot; style=&quot;border-style:solid;&quot;&gt;&lt;p style=&quot;margin:0px;margin-left:4px;&quot;&gt;+ execute()&lt;/p&gt;" style="verticalAlign=top;align=left;overflow=fill;html=1;whiteSpace=wrap;" parent="1" vertex="1">
          <mxGeometry x="220" y="252" width="160" height="120" as="geometry" />
        </mxCell>
        <mxCell id="Q3LGZ9pbvs5X4_79zKCm-66" style="edgeStyle=orthogonalEdgeStyle;rounded=0;orthogonalLoop=1;jettySize=auto;html=1;entryX=0.5;entryY=1;entryDx=0;entryDy=0;endArrow=block;endFill=0;" parent="1" source="Q3LGZ9pbvs5X4_79zKCm-13" target="Q3LGZ9pbvs5X4_79zKCm-14" edge="1">
          <mxGeometry relative="1" as="geometry" />
        </mxCell>
        <mxCell id="Q3LGZ9pbvs5X4_79zKCm-13" value="&lt;p style=&quot;margin:0px;margin-top:4px;text-align:center;&quot;&gt;&lt;i&gt;&amp;lt;&amp;lt;Interface&amp;gt;&amp;gt;&lt;/i&gt;&lt;br&gt;&lt;b&gt;AnalysisIndirectProtocol&lt;/b&gt;&lt;/p&gt;&lt;hr size=&quot;1&quot; style=&quot;border-style:solid;&quot;&gt;&lt;p style=&quot;margin:0px;margin-left:4px;&quot;&gt;&lt;br&gt;&lt;/p&gt;&lt;hr size=&quot;1&quot; style=&quot;border-style:solid;&quot;&gt;&lt;p style=&quot;margin:0px;margin-left:4px;&quot;&gt;&lt;br&gt;&lt;/p&gt;" style="verticalAlign=top;align=left;overflow=fill;html=1;whiteSpace=wrap;" parent="1" vertex="1">
          <mxGeometry x="340" y="462" width="160" height="80" as="geometry" />
        </mxCell>
        <mxCell id="Q3LGZ9pbvs5X4_79zKCm-67" style="edgeStyle=orthogonalEdgeStyle;rounded=0;orthogonalLoop=1;jettySize=auto;html=1;exitX=0.002;exitY=0.682;exitDx=0;exitDy=0;entryX=0.75;entryY=0;entryDx=0;entryDy=0;startArrow=diamondThin;startFill=0;endArrow=none;endFill=0;exitPerimeter=0;" parent="1" source="Q3LGZ9pbvs5X4_79zKCm-31" target="Q3LGZ9pbvs5X4_79zKCm-13" edge="1">
          <mxGeometry relative="1" as="geometry" />
        </mxCell>
        <mxCell id="Q3LGZ9pbvs5X4_79zKCm-72" value="1" style="edgeLabel;html=1;align=center;verticalAlign=middle;resizable=0;points=[];" parent="Q3LGZ9pbvs5X4_79zKCm-67" vertex="1" connectable="0">
          <mxGeometry x="-0.5523" y="-1" relative="1" as="geometry">
            <mxPoint as="offset" />
          </mxGeometry>
        </mxCell>
        <mxCell id="Q3LGZ9pbvs5X4_79zKCm-74" value="0..*" style="edgeLabel;html=1;align=center;verticalAlign=middle;resizable=0;points=[];" parent="Q3LGZ9pbvs5X4_79zKCm-67" vertex="1" connectable="0">
          <mxGeometry x="0.5467" relative="1" as="geometry">
            <mxPoint as="offset" />
          </mxGeometry>
        </mxCell>
        <mxCell id="Q3LGZ9pbvs5X4_79zKCm-68" style="edgeStyle=orthogonalEdgeStyle;rounded=0;orthogonalLoop=1;jettySize=auto;html=1;entryX=0.75;entryY=0;entryDx=0;entryDy=0;startArrow=diamondThin;startFill=0;endArrow=none;endFill=0;exitX=0;exitY=0.5;exitDx=0;exitDy=0;" parent="1" source="Q3LGZ9pbvs5X4_79zKCm-31" target="Q3LGZ9pbvs5X4_79zKCm-12" edge="1">
          <mxGeometry relative="1" as="geometry">
            <mxPoint x="640" y="430" as="sourcePoint" />
            <mxPoint x="470" y="472" as="targetPoint" />
          </mxGeometry>
        </mxCell>
        <mxCell id="Q3LGZ9pbvs5X4_79zKCm-71" value="1" style="edgeLabel;html=1;align=center;verticalAlign=middle;resizable=0;points=[];" parent="Q3LGZ9pbvs5X4_79zKCm-68" vertex="1" connectable="0">
          <mxGeometry x="-0.769" y="-2" relative="1" as="geometry">
            <mxPoint as="offset" />
          </mxGeometry>
        </mxCell>
        <mxCell id="Q3LGZ9pbvs5X4_79zKCm-73" value="0..*" style="edgeLabel;html=1;align=center;verticalAlign=middle;resizable=0;points=[];" parent="Q3LGZ9pbvs5X4_79zKCm-68" vertex="1" connectable="0">
          <mxGeometry x="0.7769" y="-1" relative="1" as="geometry">
            <mxPoint as="offset" />
          </mxGeometry>
        </mxCell>
        <mxCell id="Q3LGZ9pbvs5X4_79zKCm-77" value="" style="group;align=left;" parent="1" vertex="1" connectable="0">
          <mxGeometry x="582" y="20" width="220" height="130" as="geometry" />
        </mxCell>
        <mxCell id="Q3LGZ9pbvs5X4_79zKCm-46" value="runners" style="shape=folder;fontStyle=1;spacingTop=10;tabWidth=40;tabHeight=14;tabPosition=left;html=1;whiteSpace=wrap;verticalAlign=top;align=left;" parent="Q3LGZ9pbvs5X4_79zKCm-77" vertex="1">
          <mxGeometry width="220" height="130" as="geometry" />
        </mxCell>
        <mxCell id="Q3LGZ9pbvs5X4_79zKCm-49" value="AnalysisRunner" style="swimlane;fontStyle=1;align=center;verticalAlign=top;childLayout=stackLayout;horizontal=1;startSize=26;horizontalStack=0;resizeParent=1;resizeParentMax=0;resizeLast=0;collapsible=1;marginBottom=0;whiteSpace=wrap;html=1;" parent="Q3LGZ9pbvs5X4_79zKCm-77" vertex="1">
          <mxGeometry x="30" y="42" width="160" height="60" as="geometry" />
        </mxCell>
        <mxCell id="Q3LGZ9pbvs5X4_79zKCm-51" value="" style="line;strokeWidth=1;fillColor=none;align=left;verticalAlign=middle;spacingTop=-1;spacingLeft=3;spacingRight=3;rotatable=0;labelPosition=right;points=[];portConstraint=eastwest;strokeColor=inherit;" parent="Q3LGZ9pbvs5X4_79zKCm-49" vertex="1">
          <mxGeometry y="26" width="160" height="8" as="geometry" />
        </mxCell>
        <mxCell id="Q3LGZ9pbvs5X4_79zKCm-52" value="+ run()" style="text;strokeColor=none;fillColor=none;align=left;verticalAlign=top;spacingLeft=4;spacingRight=4;overflow=hidden;rotatable=0;points=[[0,0.5],[1,0.5]];portConstraint=eastwest;whiteSpace=wrap;html=1;" parent="Q3LGZ9pbvs5X4_79zKCm-49" vertex="1">
          <mxGeometry y="34" width="160" height="26" as="geometry" />
        </mxCell>
        <mxCell id="Q3LGZ9pbvs5X4_79zKCm-80" style="edgeStyle=orthogonalEdgeStyle;rounded=0;orthogonalLoop=1;jettySize=auto;html=1;entryX=0.5;entryY=0;entryDx=0;entryDy=0;endArrow=open;endFill=0;" parent="1" source="Q3LGZ9pbvs5X4_79zKCm-46" target="Q3LGZ9pbvs5X4_79zKCm-57" edge="1">
          <mxGeometry relative="1" as="geometry" />
        </mxCell>
        <mxCell id="Q3LGZ9pbvs5X4_79zKCm-81" style="edgeStyle=orthogonalEdgeStyle;rounded=0;orthogonalLoop=1;jettySize=auto;html=1;entryX=0.5;entryY=1;entryDx=0;entryDy=0;endArrow=open;endFill=0;" parent="1" source="Q3LGZ9pbvs5X4_79zKCm-46" target="Q3LGZ9pbvs5X4_79zKCm-24" edge="1">
          <mxGeometry relative="1" as="geometry">
            <Array as="points">
              <mxPoint x="540" y="85" />
              <mxPoint x="540" y="710" />
              <mxPoint x="420" y="710" />
            </Array>
          </mxGeometry>
        </mxCell>
        <mxCell id="Q3LGZ9pbvs5X4_79zKCm-83" value="AnalysisResultWrapperExporter" style="swimlane;fontStyle=1;align=center;verticalAlign=top;childLayout=stackLayout;horizontal=1;startSize=26;horizontalStack=0;resizeParent=1;resizeParentMax=0;resizeLast=0;collapsible=1;marginBottom=0;whiteSpace=wrap;html=1;" parent="1" vertex="1">
          <mxGeometry x="1100" y="415" width="210" height="60" as="geometry" />
        </mxCell>
        <mxCell id="Q3LGZ9pbvs5X4_79zKCm-85" value="" style="line;strokeWidth=1;fillColor=none;align=left;verticalAlign=middle;spacingTop=-1;spacingLeft=3;spacingRight=3;rotatable=0;labelPosition=right;points=[];portConstraint=eastwest;strokeColor=inherit;" parent="Q3LGZ9pbvs5X4_79zKCm-83" vertex="1">
          <mxGeometry y="26" width="210" height="8" as="geometry" />
        </mxCell>
        <mxCell id="Q3LGZ9pbvs5X4_79zKCm-86" value="+ export_result()" style="text;strokeColor=none;fillColor=none;align=left;verticalAlign=top;spacingLeft=4;spacingRight=4;overflow=hidden;rotatable=0;points=[[0,0.5],[1,0.5]];portConstraint=eastwest;whiteSpace=wrap;html=1;" parent="Q3LGZ9pbvs5X4_79zKCm-83" vertex="1">
          <mxGeometry y="34" width="210" height="26" as="geometry" />
        </mxCell>
        <mxCell id="Q3LGZ9pbvs5X4_79zKCm-87" style="edgeStyle=orthogonalEdgeStyle;rounded=0;orthogonalLoop=1;jettySize=auto;html=1;" parent="1" source="Q3LGZ9pbvs5X4_79zKCm-46" target="Q3LGZ9pbvs5X4_79zKCm-83" edge="1">
          <mxGeometry relative="1" as="geometry" />
        </mxCell>
        <mxCell id="Q3LGZ9pbvs5X4_79zKCm-88" style="edgeStyle=orthogonalEdgeStyle;rounded=0;orthogonalLoop=1;jettySize=auto;html=1;entryX=0.5;entryY=1;entryDx=0;entryDy=0;endArrow=open;endFill=0;exitX=0.001;exitY=0.503;exitDx=0;exitDy=0;exitPerimeter=0;" parent="1" source="Q3LGZ9pbvs5X4_79zKCm-46" edge="1">
          <mxGeometry relative="1" as="geometry">
            <mxPoint x="500" y="100" as="sourcePoint" />
            <mxPoint x="190" y="670" as="targetPoint" />
            <Array as="points">
              <mxPoint x="540" y="85" />
              <mxPoint x="540" y="710" />
              <mxPoint x="190" y="710" />
            </Array>
          </mxGeometry>
        </mxCell>
        <mxCell id="Q3LGZ9pbvs5X4_79zKCm-91" value="" style="group;align=left;" parent="1" vertex="1" connectable="0">
          <mxGeometry x="710" y="242" width="220" height="130" as="geometry" />
        </mxCell>
        <mxCell id="Q3LGZ9pbvs5X4_79zKCm-93" value="AnalysisConfigData" style="swimlane;fontStyle=1;align=center;verticalAlign=top;childLayout=stackLayout;horizontal=1;startSize=26;horizontalStack=0;resizeParent=1;resizeParentMax=0;resizeLast=0;collapsible=1;marginBottom=0;whiteSpace=wrap;html=1;" parent="Q3LGZ9pbvs5X4_79zKCm-91" vertex="1">
          <mxGeometry x="30" y="45" width="160" height="34" as="geometry" />
        </mxCell>
        <mxCell id="Q3LGZ9pbvs5X4_79zKCm-94" value="" style="line;strokeWidth=1;fillColor=none;align=left;verticalAlign=middle;spacingTop=-1;spacingLeft=3;spacingRight=3;rotatable=0;labelPosition=right;points=[];portConstraint=eastwest;strokeColor=inherit;" parent="Q3LGZ9pbvs5X4_79zKCm-93" vertex="1">
          <mxGeometry y="26" width="160" height="8" as="geometry" />
        </mxCell>
        <mxCell id="Q3LGZ9pbvs5X4_79zKCm-99" style="edgeStyle=orthogonalEdgeStyle;rounded=0;orthogonalLoop=1;jettySize=auto;html=1;entryX=0.5;entryY=1;entryDx=0;entryDy=0;startArrow=diamondThin;startFill=0;endArrow=none;endFill=0;exitX=-0.005;exitY=0.678;exitDx=0;exitDy=0;exitPerimeter=0;" parent="1" source="Q3LGZ9pbvs5X4_79zKCm-58" target="Q3LGZ9pbvs5X4_79zKCm-93" edge="1">
          <mxGeometry relative="1" as="geometry" />
        </mxCell>
        <mxCell id="Q3LGZ9pbvs5X4_79zKCm-102" value="1" style="edgeLabel;html=1;align=center;verticalAlign=middle;resizable=0;points=[];" parent="Q3LGZ9pbvs5X4_79zKCm-99" vertex="1" connectable="0">
          <mxGeometry x="0.7696" y="1" relative="1" as="geometry">
            <mxPoint as="offset" />
          </mxGeometry>
        </mxCell>
        <mxCell id="Q3LGZ9pbvs5X4_79zKCm-103" value="1" style="edgeLabel;html=1;align=center;verticalAlign=middle;resizable=0;points=[];" parent="Q3LGZ9pbvs5X4_79zKCm-99" vertex="1" connectable="0">
          <mxGeometry x="-0.7836" y="-1" relative="1" as="geometry">
            <mxPoint as="offset" />
          </mxGeometry>
        </mxCell>
        <mxCell id="Q3LGZ9pbvs5X4_79zKCm-108" style="edgeStyle=orthogonalEdgeStyle;rounded=0;orthogonalLoop=1;jettySize=auto;html=1;entryX=1;entryY=0.5;entryDx=0;entryDy=0;dashed=1;endArrow=open;endFill=0;" parent="1" source="Q3LGZ9pbvs5X4_79zKCm-83" target="Q3LGZ9pbvs5X4_79zKCm-58" edge="1">
          <mxGeometry relative="1" as="geometry" />
        </mxCell>
        <mxCell id="Q3LGZ9pbvs5X4_79zKCm-109" value="&amp;lt;&amp;lt;use&amp;gt;&amp;gt;" style="edgeLabel;html=1;align=center;verticalAlign=middle;resizable=0;points=[];" parent="Q3LGZ9pbvs5X4_79zKCm-108" vertex="1" connectable="0">
          <mxGeometry x="-0.2641" y="1" relative="1" as="geometry">
            <mxPoint x="-12" as="offset" />
          </mxGeometry>
        </mxCell>
        <mxCell id="AL9Y4oGZbgkQe4OAnznB-1" value="..." style="swimlane;fontStyle=1;align=center;verticalAlign=top;childLayout=stackLayout;horizontal=1;startSize=26;horizontalStack=0;resizeParent=1;resizeParentMax=0;resizeLast=0;collapsible=1;marginBottom=0;whiteSpace=wrap;html=1;" parent="1" vertex="1">
          <mxGeometry x="140" y="620" width="160" height="34" as="geometry">
            <mxRectangle x="110" y="543" width="130" height="30" as="alternateBounds" />
          </mxGeometry>
        </mxCell>
        <mxCell id="AL9Y4oGZbgkQe4OAnznB-2" value="" style="line;strokeWidth=1;fillColor=none;align=left;verticalAlign=middle;spacingTop=-1;spacingLeft=3;spacingRight=3;rotatable=0;labelPosition=right;points=[];portConstraint=eastwest;strokeColor=inherit;" parent="AL9Y4oGZbgkQe4OAnznB-1" vertex="1">
          <mxGeometry y="26" width="160" height="8" as="geometry" />
        </mxCell>
        <mxCell id="Q3LGZ9pbvs5X4_79zKCm-20" value="Damage" style="swimlane;fontStyle=1;align=center;verticalAlign=top;childLayout=stackLayout;horizontal=1;startSize=26;horizontalStack=0;resizeParent=1;resizeParentMax=0;resizeLast=0;collapsible=1;marginBottom=0;whiteSpace=wrap;html=1;" parent="1" vertex="1">
          <mxGeometry x="110" y="633" width="160" height="34" as="geometry">
            <mxRectangle x="110" y="543" width="130" height="30" as="alternateBounds" />
          </mxGeometry>
        </mxCell>
        <mxCell id="Q3LGZ9pbvs5X4_79zKCm-21" value="" style="line;strokeWidth=1;fillColor=none;align=left;verticalAlign=middle;spacingTop=-1;spacingLeft=3;spacingRight=3;rotatable=0;labelPosition=right;points=[];portConstraint=eastwest;strokeColor=inherit;" parent="Q3LGZ9pbvs5X4_79zKCm-20" vertex="1">
          <mxGeometry y="26" width="160" height="8" as="geometry" />
        </mxCell>
        <mxCell id="AL9Y4oGZbgkQe4OAnznB-3" value="..." style="swimlane;fontStyle=1;align=center;verticalAlign=top;childLayout=stackLayout;horizontal=1;startSize=26;horizontalStack=0;resizeParent=1;resizeParentMax=0;resizeLast=0;collapsible=1;marginBottom=0;whiteSpace=wrap;html=1;" parent="1" vertex="1">
          <mxGeometry x="370" y="620" width="160" height="34" as="geometry">
            <mxRectangle x="110" y="543" width="130" height="30" as="alternateBounds" />
          </mxGeometry>
        </mxCell>
        <mxCell id="AL9Y4oGZbgkQe4OAnznB-4" value="" style="line;strokeWidth=1;fillColor=none;align=left;verticalAlign=middle;spacingTop=-1;spacingLeft=3;spacingRight=3;rotatable=0;labelPosition=right;points=[];portConstraint=eastwest;strokeColor=inherit;" parent="AL9Y4oGZbgkQe4OAnznB-3" vertex="1">
          <mxGeometry y="26" width="160" height="8" as="geometry" />
        </mxCell>
        <object label="Losses" id="Q3LGZ9pbvs5X4_79zKCm-24">
          <mxCell style="swimlane;fontStyle=1;align=center;verticalAlign=top;childLayout=stackLayout;horizontal=1;startSize=26;horizontalStack=0;resizeParent=1;resizeParentMax=0;resizeLast=0;collapsible=1;marginBottom=0;whiteSpace=wrap;html=1;" parent="1" vertex="1">
            <mxGeometry x="340" y="633" width="160" height="34" as="geometry">
              <mxRectangle x="200" y="250" width="130" height="30" as="alternateBounds" />
            </mxGeometry>
          </mxCell>
        </object>
        <mxCell id="Q3LGZ9pbvs5X4_79zKCm-25" value="" style="line;strokeWidth=1;fillColor=none;align=left;verticalAlign=middle;spacingTop=-1;spacingLeft=3;spacingRight=3;rotatable=0;labelPosition=right;points=[];portConstraint=eastwest;strokeColor=inherit;" parent="Q3LGZ9pbvs5X4_79zKCm-24" vertex="1">
          <mxGeometry y="26" width="160" height="8" as="geometry" />
        </mxCell>
        <mxCell id="AL9Y4oGZbgkQe4OAnznB-7" value="&amp;lt;&amp;lt;use&amp;gt;&amp;gt;" style="edgeStyle=orthogonalEdgeStyle;rounded=0;orthogonalLoop=1;jettySize=auto;html=1;endArrow=open;endFill=0;dashed=1;exitX=1;exitY=0.5;exitDx=0;exitDy=0;" parent="1" source="Q3LGZ9pbvs5X4_79zKCm-31" edge="1">
          <mxGeometry relative="1" as="geometry">
            <mxPoint x="800" y="320" as="targetPoint" />
            <mxPoint x="782" y="640" as="sourcePoint" />
            <Array as="points" />
          </mxGeometry>
        </mxCell>
      </root>
    </mxGraphModel>
  </diagram>
</mxfile>
